<svg xmlns="http://www.w3.org/2000/svg" viewBox="0 0 256 75.85"><defs><style>.cls-1,.cls-4{fill:#fff;}.cls-2{fill:#a6a5a5;}.cls-3{fill:#010101;}.cls-4{opacity:0.1;}</style></defs><title>Apple_Store</title><g id="Layer_2" data-name="Layer 2"><g id="Layer_1-2" data-name="Layer 1"><g id="Apple_App_Store" data-name="Apple App Store"><path class="cls-1" d="M254.3,66.9A7.26,7.26,0,0,1,247,74.16H9A7.26,7.26,0,0,1,1.69,66.9V9A7.27,7.27,0,0,1,9,1.69H247A7.27,7.27,0,0,1,254.3,9h0V66.9Z"/><path class="cls-2" d="M247,75.85H9A9,9,0,0,1,0,66.9V9A9,9,0,0,1,9,0H247a9,9,0,0,1,9,9V66.9a9,9,0,0,1-9,8.95Z"/><path class="cls-3" d="M254.3,66.9A7.26,7.26,0,0,1,247,74.16H9A7.26,7.26,0,0,1,1.69,66.9V9A7.27,7.27,0,0,1,9,1.69H247A7.27,7.27,0,0,1,254.3,9h0V66.9Z"/><path class="cls-4" d="M247,0H119.52l49.94,75.85H247a9,9,0,0,0,9-9V9A9,9,0,0,0,247,0Z"/><path class="cls-1" d="M59,38.61a10.75,10.75,0,0,1,5.12-9,11.05,11.05,0,0,0-8.68-4.69c-3.65-.38-7.19,2.19-9,2.19S41.62,24.93,38.54,25a11.56,11.56,0,0,0-9.72,5.93c-4.21,7.28-1.07,18,2.95,23.86,2,2.88,4.37,6.1,7.46,6s4.14-1.92,7.78-1.92,4.66,1.92,7.8,1.85,5.28-2.89,7.22-5.8a23.45,23.45,0,0,0,3.3-6.72A10.42,10.42,0,0,1,59,38.61ZM53.05,21a10.55,10.55,0,0,0,2.42-7.58,10.75,10.75,0,0,0-7,3.61A10.06,10.06,0,0,0,46,24.35a8.89,8.89,0,0,0,7-3.33Z"/><path class="cls-1" d="M102.66,58.21H98.45L96.14,51h-8l-2.2,7.26h-4.1l8-24.69h4.91l8,24.69Zm-7.22-10.3-2.08-6.44c-.22-.66-.64-2.21-1.25-4.66H92c-.25,1-.64,2.61-1.17,4.66l-2.06,6.44Zm27.63,1.18a10,10,0,0,1-2.47,7.17,7.21,7.21,0,0,1-5.49,2.35A5.49,5.49,0,0,1,110,56.08v9.34h-4V46.25c0-1.9,0-3.85-.14-5.85h3.48l.22,2.83h.07a7,7,0,0,1,11.27-.7,9.84,9.84,0,0,1,2.1,6.56Zm-4,.14a7.38,7.38,0,0,0-1.17-4.29,4.2,4.2,0,0,0-6.1-.78,4.44,4.44,0,0,0-1.56,2.54,5,5,0,0,0-.18,1.21v3a4.8,4.8,0,0,0,1.19,3.28,4,4,0,0,0,3.09,1.34,4.05,4.05,0,0,0,3.48-1.73A7.49,7.49,0,0,0,119,49.23Zm24.51-.14a10,10,0,0,1-2.47,7.17,7.21,7.21,0,0,1-5.49,2.35,5.48,5.48,0,0,1-5.08-2.53v9.34h-4V46.25c0-1.9,0-3.85-.14-5.85h3.48l.22,2.83h.07a7,7,0,0,1,11.27-.7,9.84,9.84,0,0,1,2.1,6.56Zm-4,.14a7.31,7.31,0,0,0-1.18-4.29,4.19,4.19,0,0,0-6.09-.78,4.44,4.44,0,0,0-1.56,2.54,5.37,5.37,0,0,0-.19,1.21v3a4.8,4.8,0,0,0,1.19,3.28,4,4,0,0,0,3.1,1.34,4,4,0,0,0,3.48-1.73A7.56,7.56,0,0,0,139.52,49.23Zm26.93,2.05a6.57,6.57,0,0,1-2.2,5.13,9.71,9.71,0,0,1-6.72,2.16,11.73,11.73,0,0,1-6.4-1.54l.92-3.29a11.06,11.06,0,0,0,5.71,1.54,5.36,5.36,0,0,0,3.48-1,3.29,3.29,0,0,0,1.25-2.69,3.43,3.43,0,0,0-1-2.53,9.43,9.43,0,0,0-3.4-1.9q-6.5-2.41-6.49-7.07a6.25,6.25,0,0,1,2.29-5,9.09,9.09,0,0,1,6.06-1.94,12,12,0,0,1,5.61,1.17l-1,3.23a9.78,9.78,0,0,0-4.75-1.14,4.84,4.84,0,0,0-3.27,1,2.92,2.92,0,0,0-1,2.24,3,3,0,0,0,1.13,2.41A12.94,12.94,0,0,0,160.25,44a12,12,0,0,1,4.69,3,6.25,6.25,0,0,1,1.51,4.28Zm13.11-7.91H175.2V52c0,2.19.77,3.29,2.31,3.29a7.22,7.22,0,0,0,1.76-.18l.11,3a9,9,0,0,1-3.08.44,4.75,4.75,0,0,1-3.66-1.43c-.88-1-1.32-2.55-1.32-4.8v-9h-2.6v-3h2.6V37.14L175.2,36V40.4h4.36v3Zm19.64,5.79a9.75,9.75,0,0,1-2.35,6.74,8.35,8.35,0,0,1-6.52,2.71,8,8,0,0,1-6.24-2.6,9.42,9.42,0,0,1-2.33-6.55,9.69,9.69,0,0,1,2.4-6.78A8.32,8.32,0,0,1,190.63,40a8.15,8.15,0,0,1,6.3,2.6,9.38,9.38,0,0,1,2.27,6.52Zm-4.1.09a7.94,7.94,0,0,0-1.06-4.2,4.1,4.1,0,0,0-7.18,0,8.08,8.08,0,0,0-1.07,4.27,8,8,0,0,0,1.07,4.21,4.06,4.06,0,0,0,7.15,0,8.08,8.08,0,0,0,1.09-4.24Zm17-5.37a7.33,7.33,0,0,0-1.24-.11,3.76,3.76,0,0,0-3.23,1.58,6,6,0,0,0-1,3.52v9.34h-4V46c0-1.87,0-3.74-.12-5.6H206l.15,3.4h.1a6.14,6.14,0,0,1,2-2.82,4.77,4.77,0,0,1,2.86-1,5.9,5.9,0,0,1,1,.07v3.77Zm17.7,4.58a9.12,9.12,0,0,1-.15,1.8H217.74a5.15,5.15,0,0,0,1.73,4,5.87,5.87,0,0,0,3.88,1.24,13.14,13.14,0,0,0,4.8-.84l.62,2.75a14.9,14.9,0,0,1-6,1.1,8.64,8.64,0,0,1-6.5-2.44,9,9,0,0,1-2.37-6.54,10.25,10.25,0,0,1,2.2-6.7A7.6,7.6,0,0,1,222.36,40a6.64,6.64,0,0,1,5.83,2.85,9.65,9.65,0,0,1,1.57,5.6Zm-3.77-1a5.44,5.44,0,0,0-.77-3,3.44,3.44,0,0,0-3.15-1.65,3.73,3.73,0,0,0-3.15,1.61,5.86,5.86,0,0,0-1.17,3.07Z"/><path class="cls-1" d="M87,26.93a25.68,25.68,0,0,1-2.85-.14V14.85a22.12,22.12,0,0,1,3.35-.25c4.54,0,6.63,2.23,6.63,5.87C94.11,24.67,91.64,26.93,87,26.93Zm.66-10.8a8,8,0,0,0-1.57.13v9.07a10.12,10.12,0,0,0,1.32.05c3,0,4.66-1.69,4.66-4.86C92.05,17.7,90.52,16.13,87.64,16.13Zm13,10.89a4.17,4.17,0,0,1-4.22-4.5c0-2.7,1.7-4.62,4.36-4.62A4.13,4.13,0,0,1,105,22.38c0,2.73-1.75,4.64-4.36,4.64Zm.07-7.7c-1.4,0-2.3,1.31-2.3,3.15s.92,3.11,2.28,3.11,2.29-1.4,2.29-3.15-.9-3.11-2.27-3.11Zm18.87-1.24-2.74,8.75H115L113.9,23c-.28-.93-.51-1.88-.7-2.83h0a18.57,18.57,0,0,1-.7,2.83l-1.2,3.8h-1.81l-2.57-8.75h2l1,4.16c.23,1,.43,1.92.59,2.8h0c.14-.73.38-1.65.72-2.79l1.24-4.17h1.59l1.19,4.09c.28,1,.52,2,.7,2.88h0a25.61,25.61,0,0,1,.6-2.88l1.06-4.09Zm10.07,8.75h-1.94v-5c0-1.55-.59-2.32-1.76-2.32a2,2,0,0,0-2,2.14v5.21H122V20.58c0-.78,0-1.61-.08-2.51h1.71l.1,1.36h0a3.12,3.12,0,0,1,2.77-1.53c1.84,0,3,1.4,3,3.69v5.24Zm5.37,0h-1.95V14.06H135Zm7.09.19a4.17,4.17,0,0,1-4.22-4.5c0-2.7,1.7-4.62,4.36-4.62s4.21,1.81,4.21,4.48A4.28,4.28,0,0,1,142.09,27Zm.07-7.7c-1.4,0-2.3,1.31-2.3,3.15s.92,3.11,2.28,3.11,2.29-1.4,2.29-3.15-.9-3.11-2.27-3.11Zm12,7.51-.14-1h-.05a3,3,0,0,1-2.56,1.2,2.54,2.54,0,0,1-2.68-2.57c0-2.16,1.87-3.28,5.11-3.28V21c0-1.15-.61-1.73-1.81-1.73a4.12,4.12,0,0,0-2.29.65l-.4-1.28a5.65,5.65,0,0,1,3-.75c2.29,0,3.44,1.2,3.44,3.62v3.22a12.84,12.84,0,0,0,.13,2.09Zm-.27-4.36c-2.16,0-3.24.52-3.24,1.76a1.24,1.24,0,0,0,1.34,1.37,1.86,1.86,0,0,0,1.9-1.78Zm11.34,4.36-.09-1.41H165a2.94,2.94,0,0,1-2.81,1.6c-2.11,0-3.67-1.85-3.67-4.46s1.62-4.67,3.83-4.67a2.64,2.64,0,0,1,2.47,1.19h0v-5h1.94V24.47c0,.84,0,1.64.07,2.36Zm-.28-5.15a2.12,2.12,0,0,0-2.05-2.27c-1.45,0-2.33,1.28-2.33,3.08s.92,3,2.29,3a2.18,2.18,0,0,0,2.09-2.32V21.68ZM179.18,27a4.17,4.17,0,0,1-4.21-4.5c0-2.7,1.69-4.62,4.36-4.62,2.52,0,4.21,1.81,4.21,4.48S181.8,27,179.18,27Zm.08-7.7c-1.41,0-2.31,1.31-2.31,3.15s.92,3.11,2.29,3.11,2.28-1.4,2.28-3.15-.89-3.11-2.26-3.11ZM194,26.83h-1.95v-5c0-1.55-.59-2.32-1.76-2.32a2,2,0,0,0-1.94,2.14v5.21H186.4V20.58c0-.78,0-1.61-.07-2.51H188l.09,1.36h.05A3.15,3.15,0,0,1,191,17.89c1.83,0,3,1.41,3,3.69Zm13.08-7.3h-2.14v4.25q0,1.62,1.14,1.62a3.49,3.49,0,0,0,.86-.09l.05,1.48a4.38,4.38,0,0,1-1.51.22C204,27,203,26.16,203,24V19.53h-1.28V18.08H203V16.47l1.9-.57v2.17h2.14v1.46Zm10.3,7.3h-1.94v-5c0-1.57-.6-2.36-1.77-2.36a1.9,1.9,0,0,0-1.94,2.07v5.28h-1.95V14.06h1.95v5.26h0a3,3,0,0,1,2.64-1.43c1.85,0,3,1.44,3,3.73v5.21Zm10.55-3.91h-5.84a2.51,2.51,0,0,0,2.76,2.59,6.57,6.57,0,0,0,2.36-.41l.3,1.35a7.31,7.31,0,0,1-2.94.54,4.06,4.06,0,0,1-4.35-4.41c0-2.69,1.66-4.7,4.13-4.7,2.24,0,3.64,1.65,3.64,4.16a3.73,3.73,0,0,1-.06.88Zm-1.79-1.39c0-1.35-.68-2.3-1.92-2.3a2.31,2.31,0,0,0-2.13,2.3Z"/></g></g></g></svg>